HIERARCHY
ROOT Hips
{
	OFFSET 0.000000 0.000000 0.000000
	CHANNELS 6 Xposition Yposition Zposition Zrotation Yrotation Xrotation 
	JOINT LHipJoint
	{
		OFFSET 0.000000 0.000000 0.000000
		CHANNELS 3 Zrotation Yrotation Xrotation
		JOINT LeftUpLeg
		{
			OFFSET 1.363060 -1.794630 0.839290
			CHANNELS 3 Zrotation Yrotation Xrotation
			JOINT LeftLeg
			{
				OFFSET 2.448110 -6.726130 0.000000
				CHANNELS 3 Zrotation Yrotation Xrotation
				JOINT LeftFoot
				{
					OFFSET 2.562200 -7.039590 0.000000
					CHANNELS 3 Zrotation Yrotation Xrotation
					JOINT LeftToeBase
					{
						OFFSET 0.157640 -0.433110 2.322550
						CHANNELS 3 Zrotation Yrotation Xrotation
						End Site
						{
							OFFSET 0.000000 0.000000 0.000000
						}
					}
				}
			}
		}
	}
	JOINT RHipJoint
	{
		OFFSET 0.000000 0.000000 0.000000
		CHANNELS 3 Zrotation Yrotation Xrotation
		JOINT RightUpLeg
		{
			OFFSET -1.305520 -1.794630 0.839290
			CHANNELS 3 Zrotation Yrotation Xrotation
			JOINT RightLeg
			{
				OFFSET -2.542530 -6.985550 0.000000
				CHANNELS 3 Zrotation Yrotation Xrotation
				JOINT RightFoot
				{
					OFFSET -2.568260 -7.056230 0.000000
					CHANNELS 3 Zrotation Yrotation Xrotation
					JOINT RightToeBase
					{
						OFFSET -0.164730 -0.452590 2.363150
						CHANNELS 3 Zrotation Yrotation Xrotation
						End Site
						{
							OFFSET 0.000000 0.000000 0.000000
						}
					}
				}
			}
		}
	}
	JOINT LowerBack
	{
		OFFSET 0.000000 0.000000 0.000000
		CHANNELS 3 Zrotation Yrotation Xrotation
		JOINT Spine
		{
			OFFSET 0.028270 2.035590 -0.193380
			CHANNELS 3 Zrotation Yrotation Xrotation
			JOINT Spine1
			{
				OFFSET 0.056720 2.048850 -0.042750
				CHANNELS 3 Zrotation Yrotation Xrotation
				JOINT Neck
				{
					OFFSET 0.000000 0.000000 0.000000
					CHANNELS 3 Zrotation Yrotation Xrotation
					JOINT Neck1
					{
						OFFSET -0.054170 1.746240 0.172020
						CHANNELS 3 Zrotation Yrotation Xrotation
						JOINT Head
						{
							OFFSET 0.104070 1.761360 -0.123970
							CHANNELS 3 Zrotation Yrotation Xrotation
							End Site
							{
								OFFSET 0.000000 0.000000 0.000000
							}
						}
					}
				}
				JOINT LeftShoulder
				{
					OFFSET 0.000000 0.000000 0.000000
					CHANNELS 3 Zrotation Yrotation Xrotation
					JOINT LeftArm
					{
						OFFSET 3.362410 1.200890 -0.311210
						CHANNELS 3 Zrotation Yrotation Xrotation
						JOINT LeftForeArm
						{
							OFFSET 4.983000 -0.000000 -0.000000
							CHANNELS 3 Zrotation Yrotation Xrotation
							JOINT LeftHand
							{
								OFFSET 3.483560 -0.000000 -0.000000
								CHANNELS 3 Zrotation Yrotation Xrotation
								JOINT LeftFingerBase
								{
									OFFSET 0.000000 0.000000 0.000000
									CHANNELS 3 Zrotation Yrotation Xrotation
									JOINT LeftHandIndex1
									{
										OFFSET 0.715260 -0.000000 -0.000000
										CHANNELS 3 Zrotation Yrotation Xrotation
										End Site
										{
											OFFSET 0.000000 0.000000 0.000000
										}
									}
								}
								JOINT LThumb
								{
									OFFSET 0.000000 0.000000 0.000000
									CHANNELS 3 Zrotation Yrotation Xrotation
									End Site
									{
										OFFSET 0.000000 0.000000 0.000000
									}
								}
							}
						}
					}
				}
				JOINT RightShoulder
				{
					OFFSET 0.000000 0.000000 0.000000
					CHANNELS 3 Zrotation Yrotation Xrotation
					JOINT RightArm
					{
						OFFSET -3.136600 1.374050 -0.404650
						CHANNELS 3 Zrotation Yrotation Xrotation
						JOINT RightForeArm
						{
							OFFSET -5.241900 -0.000000 -0.000000
							CHANNELS 3 Zrotation Yrotation Xrotation
							JOINT RightHand
							{
								OFFSET -3.444170 -0.000000 -0.000000
								CHANNELS 3 Zrotation Yrotation Xrotation
								JOINT RightFingerBase
								{
									OFFSET 0.000000 0.000000 0.000000
									CHANNELS 3 Zrotation Yrotation Xrotation
									JOINT RightHandIndex1
									{
										OFFSET -0.622530 -0.000000 -0.000000
										CHANNELS 3 Zrotation Yrotation Xrotation
										End Site
										{
											OFFSET 0.000000 0.000000 0.000000
										}
									}
								}
								JOINT RThumb
								{
									OFFSET 0.000000 0.000000 0.000000
									CHANNELS 3 Zrotation Yrotation Xrotation
									End Site
									{
										OFFSET 0.000000 0.000000 0.000000
									}
								}
							}
						}
					}
				}
			}
		}
	}
}
MOTION
Frames: 8
Frame Time: 0.008333
5.157158 17.329127 0.901491 -140.622893 -85.680202 150.377105 -10.374405 3.118743 2.269400 -5.761897 17.912132 -16.341551 -2.803790 -1.221116 1.459062 0.411624 2.825208 -1.018090 0.442500 0.000000 -28.556900 9.785325 -2.435832 4.807932 7.730590 0.417737 -9.819870 2.744161 2.174354 -3.783553 -0.537027 -5.531443 -0.196943 -1.697200 -0.000000 -34.177200 1.498452 -3.791821 -9.140316 -0.056190 -4.300769 -5.248550 -5.495726 -4.257751 -4.373676 6.096212 -1.881917 8.210231 -2.645050 -0.391371 4.400856 0.000000 0.000000 0.000000 11.070319 1.748759 -7.525397 -73.719634 -72.397015 3.904530 174.115523 -50.351486 179.437972 30.016046 -28.117747 -8.313297 -0.404491 1.725022 0.000000 0.000000 0.000000 0.000000 0.000000 0.000000 0.000000 2.711187 -8.378696 -8.429028 70.483897 69.967541 -3.728679 -174.452659 53.721833 179.663782 -14.821986 24.570390 -3.437988 -0.049734 -1.363288 0.000000 0.000000 0.000000 0.000000 0.000000 0.000000 0.000000 
5.150944 17.330313 0.898378 -111.320983 -87.092496 121.279640 -10.303918 2.761682 2.312077 -5.685189 16.946947 -16.488584 -2.759092 -1.394283 1.494279 0.318275 2.417036 -0.793348 0.435000 0.000000 -28.592000 9.848799 -2.786700 4.864250 7.908153 -0.066627 -10.068865 2.664431 2.042638 -3.841419 -0.698972 -6.304882 -0.537649 -1.810000 0.000000 -33.800501 1.314301 -4.256130 -9.216496 0.014359 -4.715364 -5.284755 -5.360500 -4.674344 -4.530778 6.032233 -1.771339 8.232326 -2.566315 -0.388782 4.409776 0.000000 0.000000 0.000000 10.983656 1.256923 -7.549901 -74.255763 -72.408325 4.263792 174.058285 -50.472497 179.437543 29.930787 -28.019359 -8.256267 -0.395529 1.716893 0.000000 0.000000 0.000000 0.000000 0.000000 0.000000 0.000000 2.520076 -8.453993 -8.368631 69.236556 70.701162 -5.303842 -174.386821 54.162928 179.660126 -15.363554 24.250635 -3.520740 -0.036457 -1.352283 0.000000 0.000000 0.000000 0.000000 0.000000 0.000000 0.000000 
5.145229 17.331416 0.895294 -65.867662 -88.253446 76.044524 -11.067383 2.475173 2.426101 -5.980071 16.043464 -16.685022 -2.709058 -1.479517 1.414024 0.257686 2.120202 -0.559477 0.426100 0.000001 -28.619700 9.102559 -3.073188 4.828779 7.689517 -0.490731 -10.251602 2.636422 2.011266 -3.838505 -0.818204 -6.960507 -0.861072 -1.923200 0.000000 -33.392400 0.196349 -4.681618 -9.296037 -0.123314 -4.961709 -5.328888 -5.169024 -4.940732 -4.708303 5.951067 -1.602912 8.261247 -2.480863 -0.386752 4.420697 0.000000 0.000000 0.000000 10.889431 0.797503 -7.571673 -74.739182 -72.435569 4.599711 173.969328 -50.612460 179.436277 29.835378 -27.903241 -8.190613 -0.383890 1.707528 0.000000 0.000000 0.000000 0.000000 0.000000 0.000000 0.000000 2.335174 -8.385922 -8.293615 67.805973 71.450773 -7.056683 -174.365168 54.741769 179.657800 -15.854379 23.918028 -3.586354 -0.023345 -1.340141 0.000000 0.000000 0.000000 0.000000 0.000000 0.000000 0.000000 
5.140310 17.331979 0.895232 -27.533316 -88.475379 37.959475 -11.796505 2.769234 2.962116 -6.092877 14.411805 -17.189563 -2.628050 -1.303750 1.365891 0.315163 2.191889 -0.581260 0.421400 0.000000 -28.580900 8.347326 -2.785441 4.408694 7.737157 -1.775292 -10.406943 2.751548 2.222784 -3.497314 -0.746807 -7.094591 -1.068296 -1.997700 0.000000 -32.934800 -0.605102 -4.680495 -9.390488 -0.289529 -4.867098 -5.404018 -5.002582 -4.864648 -4.927291 5.783027 -1.359598 8.289860 -2.396667 -0.383860 4.434408 0.000000 0.000000 0.000000 10.716876 0.477137 -7.589359 -75.260434 -72.481539 4.951912 173.879362 -50.768820 179.435039 29.754884 -27.778998 -8.127634 -0.374105 1.699623 0.000000 0.000000 0.000000 0.000000 0.000000 0.000000 0.000000 2.075697 -8.089260 -8.191831 66.166213 72.222303 -9.005827 -174.380537 55.457698 179.656157 -16.297354 23.668858 -3.650837 -0.010979 -1.329145 -0.000000 0.000000 0.000000 0.000000 0.000000 0.000000 0.000000 
5.137735 17.332810 0.891765 -20.310318 -87.986120 30.963571 -11.756504 2.880592 3.145370 -6.096677 13.726325 -17.428793 -2.626819 -1.265622 1.153881 0.304113 2.024618 -0.413949 0.412800 0.000000 -28.599500 8.364028 -2.646536 4.308166 7.811375 -2.016807 -10.548680 2.733360 2.289504 -3.399321 -0.790947 -7.579643 -1.242003 -2.098900 0.000000 -32.504600 -0.647951 -4.530130 -9.428592 -0.291836 -4.728867 -5.477625 -4.880349 -4.735176 -5.190782 5.622078 -1.046481 8.322093 -2.301125 -0.380214 4.447317 0.000000 0.000000 0.000000 10.499790 0.170669 -7.604944 -75.780259 -72.574811 5.329918 173.795162 -50.951448 179.433710 29.711420 -27.664461 -8.077759 -0.364285 1.690357 0.000000 0.000000 0.000000 0.000000 0.000000 0.000000 0.000000 1.784278 -7.651752 -8.098776 64.268505 72.935659 -11.205598 -174.400217 56.315395 179.653436 -16.726100 23.608920 -3.739262 -0.001550 -1.320093 -0.000000 0.000000 0.000000 0.000000 0.000000 0.000000 0.000000 
5.136387 17.333637 0.888095 -15.921510 -87.315396 26.830693 -11.672622 2.938111 3.299428 -6.087060 13.045865 -17.682342 -2.626944 -1.252651 0.955267 0.283224 1.831122 -0.224503 0.403599 0.000000 -28.620300 8.424967 -2.553010 4.230061 7.907811 -2.254106 -10.728173 2.707632 2.334854 -3.350814 -0.849649 -8.084296 -1.406643 -2.197000 -0.000000 -32.058200 -0.634776 -4.401040 -9.455428 -0.274381 -4.614543 -5.555253 -4.750190 -4.627805 -5.483714 5.428910 -0.689422 8.353821 -2.188589 -0.376023 4.460497 0.000000 0.000000 0.000000 10.209140 -0.160937 -7.605097 -76.337524 -72.721072 5.759746 173.713831 -51.162671 179.431960 29.713241 -27.577590 -8.048497 -0.354672 1.680783 0.000000 0.000000 0.000000 0.000000 0.000000 0.000000 0.000000 1.406589 -7.150477 -8.023023 62.231083 73.585852 -13.591455 -174.434902 57.311764 179.649112 -17.201303 23.840927 -3.885306 0.007564 -1.316615 -0.000000 0.000000 0.000000 0.000000 0.000000 0.000000 0.000000 
5.137254 17.334520 0.883949 -12.933159 -86.573271 24.102903 -11.581068 2.959593 3.421119 -6.081099 12.391433 -17.915610 -2.627883 -1.252583 0.750772 0.257490 1.632687 -0.011348 0.394701 -0.000000 -28.642100 8.497356 -2.483197 4.151446 7.995924 -2.495597 -10.911071 2.678135 2.365751 -3.335635 -0.914077 -8.571033 -1.554554 -2.286599 -0.000000 -31.613599 -0.610916 -4.273700 -9.444254 -0.249258 -4.497940 -5.633202 -4.606358 -4.517262 -5.809123 5.188358 -0.305235 8.377044 -2.056807 -0.371119 4.471793 0.000000 0.000000 0.000000 9.841878 -0.500113 -7.591161 -76.955316 -72.921597 6.262899 173.630969 -51.406642 179.429597 29.773560 -27.526492 -8.045764 -0.345237 1.670836 0.000000 0.000000 0.000000 0.000000 0.000000 0.000000 0.000000 0.917262 -6.585771 -7.969171 60.141229 74.159775 -16.128793 -174.487407 58.454151 179.642635 -17.768198 24.443485 -4.117570 0.017053 -1.319849 -0.000000 0.000000 0.000000 0.000000 0.000000 0.000000 0.000000 
5.140342 17.335643 0.879296 -10.727391 -85.809661 22.165366 -11.491275 2.955228 3.514290 -6.087052 11.769589 -18.138351 -2.630362 -1.259934 0.542344 0.229756 1.441119 0.222048 0.386700 -0.000000 -28.667500 8.571286 -2.426837 4.070049 8.069288 -2.730894 -11.100060 2.646900 2.387257 -3.347843 -0.981391 -9.033093 -1.680895 -2.368500 -0.000000 -31.174200 -0.583314 -4.134628 -9.398501 -0.219499 -4.364873 -5.711839 -4.445402 -4.389232 -6.163752 4.884389 0.082539 8.382407 -1.905909 -0.365401 4.478814 0.000000 0.000000 0.000000 9.391873 -0.838580 -7.566178 -77.661848 -73.172352 6.862993 173.546945 -51.681941 179.426640 29.888029 -27.518631 -8.070454 -0.335791 1.660718 0.000000 0.000000 0.000000 0.000000 0.000000 0.000000 0.000000 0.296804 -5.972019 -7.939012 58.115408 74.657397 -18.752080 -174.561185 59.775994 179.633465 -18.496809 25.464947 -4.469956 0.027841 -1.329770 -0.000000 0.000000 0.000000 0.000000 0.000000 0.000000 0.000000 
